# xmcd CD database file
#
# Track frame offsets:
#	150
#	30373
#	54485
#	87903
#	122091
#	147879
#	174189
#	201408
#	226253
#	253362
#
# Disc length: 3605 seconds
#
# Revision: 1
# Processed by: cddbd v1.5.1PL2 Copyright (c) Steve Scherf et al.
# Submitted via: CDex 1.51
#
DISCID=830e130a
DTITLE=Jazz X-Change - Well, you needn´t
DYEAR=2005
DGENRE=Jazz
TTITLE0=Jive Samba
TTITLE1=Well, You Needn´t
TTITLE2=All Blues
TTITLE3=Round Midnight
TTITLE4=Unit Seven
TTITLE5=Recorda Me
TTITLE6=Bag´s Groove
TTITLE7=Are You Real
TTITLE8=Why Am I Treated So Bad
TTITLE9=Sonnymoon For Two
EXTD=YEAR: 2005
EXTT0=
EXTT1=
EXTT2=
EXTT3=
EXTT4=
EXTT5=
EXTT6=
EXTT7=
EXTT8=
EXTT9=
PLAYORDER=
